<?xml version="1.0" encoding="UTF-8" standalone="no"?>
<!-- Created with Inkscape (http://www.inkscape.org/) -->

<svg
   xmlns:dc="http://purl.org/dc/elements/1.1/"
   xmlns:cc="http://creativecommons.org/ns#"
   xmlns:rdf="http://www.w3.org/1999/02/22-rdf-syntax-ns#"
   xmlns:svg="http://www.w3.org/2000/svg"
   xmlns="http://www.w3.org/2000/svg"
   xmlns:sodipodi="http://sodipodi.sourceforge.net/DTD/sodipodi-0.dtd"
   xmlns:inkscape="http://www.inkscape.org/namespaces/inkscape"
   width="1440"
   height="2559"
   viewBox="0 0 1440 2559"
   version="1.1"
   id="svg8"
   inkscape:version="0.92.1 r15371"
   sodipodi:docname="floorplan.svg">
  <defs
     id="defs2" />
  <sodipodi:namedview
     id="base"
     pagecolor="#ffffff"
     bordercolor="#666666"
     borderopacity="1.0"
     inkscape:pageopacity="0.0"
     inkscape:pageshadow="2"
     inkscape:zoom="0.7"
     inkscape:cx="452.75929"
     inkscape:cy="1247.3366"
     inkscape:document-units="px"
     inkscape:current-layer="layer1"
     showgrid="false"
     units="px"
     inkscape:window-width="2560"
     inkscape:window-height="1356"
     inkscape:window-x="1912"
     inkscape:window-y="2152"
     inkscape:window-maximized="1" />
  <metadata
     id="metadata5">
    <rdf:RDF>
      <cc:Work
         rdf:about="">
        <dc:format>image/svg+xml</dc:format>
        <dc:type
           rdf:resource="http://purl.org/dc/dcmitype/StillImage" />
        <dc:title />
      </cc:Work>
    </rdf:RDF>
  </metadata>
  <g
     inkscape:label="Layer 1"
     inkscape:groupmode="layer"
     id="layer1"
     transform="translate(0,1697.2)">
    <path
       style="fill:#000000;stroke-width:4.7935524"
       d="m 780.02364,563.23164 c -1.77185,-2.86743 -3.67367,-13.06625 -4.22532,-22.66409 -0.55079,-9.59768 -3.91536,-43.87482 -7.47486,-76.17137 l -6.47189,-58.72112 H 700.9868 c -56.8336,0 -61.03103,-0.63409 -63.37199,-9.58696 -2.44363,-9.34422 -6.53857,-9.58717 -161.59184,-9.58717 -155.05347,0 -159.1484,0.24255 -161.59189,9.58717 -2.31338,8.8458 -6.53853,9.58696 -54.65139,9.58696 h -52.14432 l -1.22474,-427.824564 c -1.07978,-377.476036 -2.07042,-427.615116 -8.41462,-426.045426 -12.7604,3.15729 -154.142323,3.11764 -159.259233,-0.0363 -2.984484,-1.84472 -3.278525,-5.65096 -0.740987,-9.58717 5.101479,-7.9115 5.015424,-6.74909 5.896285,-79.62943 l 0.710194,-58.72274 h 14.471994 c 13.043042,0 14.175019,1.18306 11.464097,11.9839 -2.88301,11.48718 -2.042345,12.01363 20.281324,12.70372 l 23.288996,0.71928 -21.570929,2.87524 -21.571082,2.87518 v 39.54681 c 0,21.75076 1.617891,39.54692 3.595194,39.54692 1.977349,0 32.716007,0 68.308107,0 h 64.71306 v -40.34588 c 0,-27.79133 -1.86444,-41.09799 -5.99197,-42.76355 -3.57944,-1.44393 -2.61451,-2.57012 2.39677,-2.79622 7.39585,-0.33337 8.3887,4.72755 8.3887,42.76371 v 43.14194 h 38.12945 38.12943 l 1.67764,-32.3565 1.67767,-32.35652 0.93849,32.35652 0.9385,32.3565 h 124.71432 124.71448 l -1.37869,17.97569 -1.37872,17.97587 -152.12573,1.2664 -152.12572,1.26642 1.22653,391.805596 1.22654,391.805594 37.15004,1.40049 c 33.21163,1.25192 37.15,2.39512 37.15,10.78545 0,9.13425 4.36284,9.38555 162.98094,9.38555 146.49863,0 162.98073,-0.77905 162.98073,-7.70317 0,-4.87792 2.63716,-6.69129 7.19024,-4.94405 5.19478,1.99347 7.19041,-0.52539 7.19041,-9.07423 0,-11.14783 1.5273,-11.8334 26.36456,-11.8334 h 26.36458 V -61.688284 c 0,-339.809626 -0.85876,-385.881056 -7.19042,-385.881056 -6.03636,0 -7.19025,10.38616 -7.19025,64.71309 0,39.94625 -1.83473,64.71286 -4.79367,64.71286 -3.01923,0 -4.79351,-32.12788 -4.79351,-86.79683 0,-67.4575 1.33528,-86.28888 5.99197,-84.517 3.29555,1.25372 10.84542,0.47647 16.77739,-1.73019 9.63158,-3.58014 10.78548,-7.2654 10.78548,-34.44656 v -30.43754 l 71.82883,-52.40578 c 39.5058,-28.82322 75.09792,-53.10322 79.09352,-53.9557 14.92581,-3.1842 6.43565,8.92918 -18.58676,26.51898 -14.21852,9.99519 -45.49633,32.01681 -69.50657,48.93699 l -43.65468,30.76421 v 37.54386 37.5441 h 59.91934 c 56.89889,0 59.91942,0.48735 59.91942,9.67193 0,5.31944 14.02121,36.31863 31.15803,68.88696 17.13706,32.56814 31.15807,61.65085 31.15807,64.62807 0,14.03788 -9.61051,0.91311 -38.15659,-52.11205 l -30.96639,-57.52008 H 793.7568 739.60833 l 1.22835,371.797116 1.22838,371.797164 109.05331,0.14506 c 73.36627,0.0906 109.05333,1.79904 109.05333,5.20908 0,3.50207 28.52197,4.04344 92.2759,1.75196 50.7519,-1.82462 131.7498,-3.25694 179.9955,-3.18306 56.3771,0.0908 86.6774,-1.55081 84.8028,-4.58493 -4.3022,-6.96108 28.1808,-5.82513 35.2381,1.23196 4.7401,4.74024 6.7779,4.61502 10.01,-0.61416 2.2319,-3.61134 6.1066,-5.30004 8.6105,-3.7525 5.0061,3.0941 13.1906,-518.59618 8.2139,-523.57282 -1.5978,-1.59796 -5.423,-2.90658 -8.499,-2.90658 -4.0545,0 -5.9472,-29.3273 -6.8823,-106.65658 l -1.2899,-106.65688 H 1178.1868 993.72687 v -19.17412 -19.17418 l 176.16293,-0.0723 c 102.5728,-0.0363 179.1668,-1.97135 183.3535,-4.61649 6.6246,-4.18547 7.9424,-24.26713 5.3546,-81.59406 -2.0623,-45.68532 5.1232,-237.57777 8.9438,-238.85147 3.2077,-1.0688 4.8758,-74.282 4.8758,-213.97979 0,-203.8685 -0.3604,-212.4489 -9.0194,-214.7134 -8.1846,-2.1402 -8.9003,-6.7952 -7.731,-50.2845 0.7084,-26.3594 -0.2231,-50.3723 -2.071,-53.3622 -2.4609,-3.9817 -85.3578,-5.1059 -309.8422,-4.2018 l -306.48217,1.2338 -1.06891,316.3744 -1.06893,316.37469 -16.90769,1.48755 -16.90767,1.48743 v -38.63798 -38.6377 h -51.87488 -51.8751 l -23.38714,-46.7371 c -12.86314,-25.7055 -29.4257,-57.0782 -36.8058,-69.7174 -14.82433,-25.3881 -16.3828,-32.1456 -7.41381,-32.1456 3.3028,0 19.67238,26.9637 36.37697,59.9192 16.70473,32.9558 32.33786,59.9196 34.74042,59.9196 2.40268,0 4.11298,-1.6178 3.80065,-3.5951 -0.31163,-1.9774 -0.31163,-22.4699 0,-45.5388 l 0.56708,-41.9437 22.76933,0.837 22.76936,0.837 -20.54871,1.8437 -20.54871,1.8434 1.37513,44.0563 1.37509,44.0561 33.5548,0.6305 c 18.45525,0.3477 38.3715,-0.4167 44.25818,-1.6977 l 10.7032,-2.3279 -1.11604,-264.34519 -1.11601,-264.3446 -140.21137,-1.2701 -140.21137,-1.27 v 268.8734 268.87369 l 21.41488,-1.3171 c 24.68654,-1.5182 28.60769,0.846 24.2385,14.6121 -3.0908,9.7383 -5.83381,9.9484 -129.86366,9.9484 H 207.58338 v -11.9839 c 0,-11.8428 0.48011,-11.9838 40.74523,-11.9838 h 40.74525 v -28.7612 -28.7613 h -40.74525 -40.74523 v -69.5067 -69.50659 h 40.74523 40.74525 v -28.5992 -28.5991 l -51.53068,-1.3608 -51.53086,-1.3605 -1.27731,-125.8308 -1.27724,-125.8306 h -50.25269 c -33.960799,0 -50.252877,1.7447 -50.252877,5.3805 0,3.7173 -2.222427,3.536 -7.190218,-0.587 -6.376263,-5.2919 -7.190433,23.2249 -7.190433,251.8734 0,141.81269 0.833387,256.94239 1.850347,255.84369 2.088738,-2.2547 20.775175,-50.0223 36.287251,-92.7605 12.80063,-35.2674 14.90008,-38.7293 19.23467,-31.7159 1.89453,3.0654 -5.92511,30.437 -17.37674,60.8257 -11.451629,30.3886 -20.821175,60.4673 -20.821175,66.8414 0,9.2545 -2.485357,11.5895 -12.335407,11.5895 -22.56247,0 -10.904487,14.8093 48.289842,61.34359 51.14135,40.20353 71.26844,63.2888 55.17862,63.2888 -2.97252,0 -33.86118,-21.9832 -68.64147,-48.85181 -34.780257,-26.86838 -63.851019,-49.23348 -64.601625,-49.69978 -0.750061,-0.4656 -1.393213,-142.9619 -1.429452,-316.65659 l -0.07221,-315.8088 24.199351,-1.4493 c 19.299183,-1.156 24.199357,0.055 24.199357,5.9918 0,6.371 9.648279,7.4409 67.109849,7.4409 56.45732,0 67.10962,-1.1414 67.10962,-7.1904 0,-6.3525 68.97388,-7.1903 592.00371,-7.1903 h 592.00401 v 81.4906 c 0,69.2401 -1.0816,81.4901 -7.1903,81.4901 -6.2837,0 -7.1904,26.8973 -7.1904,213.3132 0,186.41609 0.9057,213.31329 7.1904,213.31329 6.3119,0 7.1903,35.4191 7.1903,290.00991 0,190.14427 -1.6507,290.00991 -4.7935,290.00991 -3.0361,0 -4.7935,35.15276 -4.7935,95.87113 0,60.718326 1.7573,95.870926 4.7935,95.870926 3.1278,0 4.7935,78.29477 4.7935,225.297044 0,222.10135 -0.145,225.2971 -9.587,225.2971 -5.2731,0 -9.5873,1.00366 -9.5873,2.23184 0,1.22837 -3.2096,25.49494 -7.1324,53.92743 -3.9229,28.43269 -7.7561,61.78313 -8.5182,74.11254 l -1.386,22.41679 -295.6546,2.64407 c -210.45289,1.882 -296.58341,1.14138 -298.87705,-2.56979 z m 581.97906,-22.13868 c 2.3668,-4.61375 5.6254,-24.56697 7.2413,-44.34026 1.616,-19.77348 4.4089,-46.53498 6.2066,-59.47006 2.206,-15.87193 1.6414,-22.5132 -1.7338,-20.4266 -5.8347,3.60607 -10.7277,-11.7453 -10.821,-33.95033 l -0.073,-15.57896 -65.9113,-0.73013 c -36.2512,-0.40216 -69.1469,-0.94025 -73.1017,-1.19754 -4.1262,-0.26819 -7.8367,-6.08599 -8.7071,-13.65052 l -1.5161,-13.18221 H 1086.876 960.16518 v 11.98393 11.98371 h -91.07752 -91.07745 v 35.98326 c 0,32.57449 10.76949,121.72391 17.22382,142.57659 2.43388,7.86387 20.11116,8.38875 282.52737,8.38875 261.7661,0 280.2106,-0.54354 284.2347,-8.38875 z M 639.00369,374.51699 c 0,-6.2503 -21.30473,-7.19024 -162.98072,-7.19024 -89.6395,0 -162.98094,1.79723 -162.98094,3.99453 0,2.1971 1.43854,5.43288 3.19574,7.1904 1.75735,1.75739 75.09898,3.19577 162.98089,3.19577 138.83537,0 159.78503,-0.94211 159.78503,-7.19046 z M 1214.2301,319.3911 c 0,-9.34584 -3.1957,-9.58698 -127.0292,-9.58698 -123.83342,0 -127.0292,0.24098 -127.0292,9.58698 0,9.34602 3.19578,9.58719 127.0292,9.58719 123.8335,0 127.0292,-0.24098 127.0292,-9.58719 z m 176.1434,-504.52133 c -0.8551,-27.02367 -1.5527,-4.91343 -1.5527,49.13394 0,54.047186 0.6994,76.157606 1.5527,49.133906 0.8552,-27.023646 0.8552,-71.244166 0,-98.267846 z M 400.52446,-815.09611 c 12.47075,-2.2198 13.18219,-3.749 13.18219,-28.3301 v -25.9836 h -45.53874 -45.53872 v 25.9651 c 0,16.45 2.19584,26.7388 5.99197,28.0767 8.32149,2.9328 55.94263,3.1131 71.9033,0.2719 z M 1385.596,-1131.5298 c -0.761,-60.1593 -1.3842,-12.3113 -1.386,106.3292 -10e-4,118.64079 0.6214,167.86199 1.3842,109.38099 0.7627,-58.4815 0.7627,-155.55099 0,-215.71019 z m -1024.93084,154.26469 0.0544,-103.06129 h -19.04914 -19.04934 v 103.06129 103.0618 h 18.98685 18.9866 l 0.0544,-103.0618 z m -29.34762,8.7094 c 3.46028,-1.3841 7.59481,-1.2139 9.18753,0.3787 1.59252,1.5924 -1.23742,2.7257 -6.29147,2.5176 -5.58429,-0.2303 -6.72006,-1.3661 -2.89606,-2.8961 z m -69.80618,86.0095 -29.95963,-1.7012 v -50.1036 -50.1037 h 28.76133 c 22.36988,0 28.76133,-1.598 28.76133,-7.1905 0,-5.7523 -7.19041,-7.1903 -35.95173,-7.1903 h -35.95154 v 59.9196 59.9195 l 37.14998,-0.9241 c 36.71287,-0.9131 36.79748,-0.9439 7.19026,-2.6256 z m 147.40181,-228.61529 c 0,-255.9368 2.1061,-238.6828 -28.76136,-235.6118 l -11.9839,1.1922 -1.3026,91.8822 c -0.85335,60.2033 0.38589,91.8821 3.59518,91.8821 2.93175,0 4.56504,12.9853 4.06972,32.3562 l -0.828,32.3566 -3.13879,-31.1581 c -1.7266,-17.1369 -3.03811,31.3978 -2.91496,107.8549 l 0.22284,139.01319 2.69117,-100.6647 2.69134,-100.66459 1.0508,101.86299 1.05084,101.8631 h 16.77737 16.77744 z m -36.81412,-93.7971 c 0,-17.1371 0.86961,-24.1476 1.93327,-15.5792 1.0635,8.5685 1.0635,22.5896 0,31.1581 -1.06347,8.5684 -1.93327,1.5581 -1.93327,-15.5789 z m -0.77725,-43.142 c 0,-6.5913 1.08704,-9.2874 2.41776,-5.992 1.32983,3.2956 1.32983,8.6882 0,11.9839 -1.32982,3.2957 -2.41776,0.5997 -2.41776,-5.9919 z m 0.91854,-57.5226 c 0,-22.41 0.82616,-31.5777 1.83494,-20.3726 1.00913,11.2048 1.00913,29.5401 0,40.7452 -1.00914,11.2048 -1.83494,2.0371 -1.83494,-20.3726 z m -83.16521,368.32869 v -42.8683 l -25.16632,1.4494 -25.1661,1.4494 -1.38053,41.5865 c -1.53634,46.2899 -0.88052,47.0681 36.13308,42.9749 l 15.57913,-1.7229 z m 0,-272.45779 v -139.0129 h -33.10625 c -30.74605,0 -32.92738,-0.6831 -30.59894,-9.5872 2.41957,-9.2527 0.14478,-9.5872 -65.16184,-9.5872 H 92.539381 v 11.9839 c 0,9.5873 -2.396745,11.9839 -11.98391,11.9839 -8.788209,0 -11.983919,2.5566 -11.983919,9.5872 0,9.0544 3.19571,9.5869 57.522638,9.5869 h 57.52264 v -11.6503 c 0,-8.2708 -3.12868,-12.2531 -10.78543,-13.7279 -9.24748,-1.7808 -8.90562,-2.1705 2.39673,-2.7303 l 13.18238,-0.6522 v 141.41 141.4097 h 50.3322 50.33242 z m -65.80447,116.3404 c 9.94553,-1.038 25.0451,-1.02 33.55484,0.036 8.50969,1.058 0.37317,1.9078 -18.08279,1.8867 -18.45508,-0.016 -25.41757,-0.8878 -15.47205,-1.9255 z m 53.45981,-111.5467 c 0,-56.6838 0.69391,-79.8726 1.53999,-51.5307 0.8479,28.3416 0.8479,74.7195 0,103.0613 -0.84791,28.3419 -1.53999,5.153 -1.53999,-51.5306 z m -175.5027,-147.0812 c 3.46021,-1.3842 7.59479,-1.2137 9.18765,0.3786 1.59252,1.5927 -1.23921,2.7261 -6.29164,2.5179 -5.584129,-0.2303 -6.720079,-1.3661 -2.89601,-2.8961 z m 259.75063,221.3812 v -45.5388 h -19.17434 -19.17413 v 45.5388 45.5386 h 19.17413 19.17434 z m 0,-88.6807 v -38.3485 l -17.97586,-0.6305 -17.97585,-0.6304 16.77737,-2.9643 16.77745,-2.964 1.38414,-41.9436 1.38419,-41.9435 h -19.36096 -19.36079 v 83.8871 83.8871 h 19.17418 19.17433 z m 278.02602,-155.7904 v -16.7775 h -98.43656 c -82.54161,0 -100.34427,1.2501 -110.25156,7.7415 -6.49852,4.258 -11.81525,11.8078 -11.81525,16.7774 0,8.5902 5.43792,9.0359 110.25158,9.0359 H 639.00442 Z M 1273.0177,291.98371 c 7.2865,-1.10155 18.0721,-1.07254 23.9678,0.0723 5.8958,1.13779 -0.073,2.03911 -13.2482,2.00329 -13.1822,-0.0363 -18.006,-0.96751 -10.7196,-2.06885 z m -1151.8353,-810.48869 2.31212,-22.54653 1.62692,18.60744 c 0.89502,10.23418 -0.14478,20.38006 -2.31212,22.54652 -2.16647,2.16647 -2.89858,-6.20681 -1.62692,-18.60743 z m -1.27002,-44.1176 c -1.37876,-5.27287 -0.55257,-9.58696 1.83763,-9.58696 2.3897,0 4.34472,4.31409 4.34472,9.58696 0,5.27289 -0.82615,9.58716 -1.83764,9.58716 -1.01094,0 -2.96582,-4.31427 -4.34471,-9.58716 z m 167.77421,0 c -1.37872,-5.27287 -0.55258,-9.58696 1.83781,-9.58696 2.38951,0 4.34473,4.31409 4.34473,9.58696 0,5.27289 -0.82617,9.58716 -1.8376,9.58716 -1.011,0 -2.96602,-4.31427 -4.34494,-9.58716 z m -131.63206,-8.22692 c 7.25021,-1.0979 19.11418,-1.0979 26.36455,0 7.25021,1.09793 1.31895,1.99692 -13.18237,1.99692 -14.50042,0 -20.43239,-0.89863 -13.18218,-1.99692 z m 76.76271,-0.005 c 7.28647,-1.10152 18.07208,-1.07258 23.96784,0.0723 5.89574,1.13777 -0.0723,2.03929 -13.24832,2.00342 -13.18219,-0.0363 -18.00595,-0.96746 -10.71952,-2.06879 z M 76.397336,-1252.8944 c -0.458339,-1.3189 0.478319,-14.2606 2.080074,-28.7613 l 2.912722,-26.3645 0.780853,25.1664 0.780877,25.166 h 21.331738 21.33193 l 1.7302,-27.5628 1.73022,-27.5631 0.90586,29.5161 0.90586,29.5161 -26.82929,1.6414 c -14.756033,0.9041 -27.203761,0.5635 -27.66176,-0.7555 z"
       id="path3702"
       inkscape:connector-curvature="0" />
    <rect
       id="light.pc_room_panel_2"
       width="108.83374"
       height="103.52478"
       x="989.57275"
       y="-971.01117"
       inkscape:label="#rect3704"
       style="stroke-width:2.62780261" />
    <text
       xml:space="preserve"
       style="font-style:normal;font-weight:normal;font-size:105.11209869px;line-height:1.25;font-family:sans-serif;letter-spacing:0px;word-spacing:0px;fill:#000000;fill-opacity:1;stroke:none;stroke-width:2.62780261"
       x="462.75415"
       y="-1247.4666"
       id="sensor.kitchen_temperature"
       inkscape:label="#text3712"><tspan
         sodipodi:role="line"
         id="tspan3710"
         x="462.75415"
         y="-1247.4666"
         style="font-size:42.04484177px;stroke-width:2.62780261">temp</tspan></text>
    <rect
       id="light.kitchen_panel"
       width="80.711075"
       height="76.957077"
       x="496.54019"
       y="-1123.5845"
       inkscape:label="#rect3714"
       style="stroke-width:2.50829387" />
    <text
       xml:space="preserve"
       style="font-style:normal;font-weight:normal;font-size:42.04484177px;line-height:1.25;font-family:sans-serif;letter-spacing:0px;word-spacing:0px;fill:#000000;fill-opacity:1;stroke:none;stroke-width:2.62780261"
       x="459.00015"
       y="-1191.1566"
       id="sensor.kitchen_humidity"
       inkscape:label="#text3718"><tspan
         sodipodi:role="line"
         id="tspan3716"
         x="459.00015"
         y="-1191.1566"
         style="stroke-width:2.62780261">humid</tspan></text>
    <rect
       style="stroke-width:2.50829387"
       inkscape:label="#rect3714"
       y="-106.24943"
       x="1040.8707"
       height="76.957077"
       width="80.711075"
       id="light.living_room_panel" />
    <rect
       id="light.bedroom_panel"
       width="80.711075"
       height="76.957077"
       x="423.3371"
       y="-106.24943"
       inkscape:label="#rect3714"
       style="stroke-width:2.50829387" />
    <g
       id="light.plants"
       transform="matrix(2.6278025,0,0,2.6278025,1046.2372,-444.78894)"
       style="fill:none;fill-rule:evenodd;stroke:none;stroke-width:1;stroke-linecap:round;stroke-linejoin:round"
       inkscape:label="#g3762">
      <g
         id="g3760"
         transform="translate(-487,-644)"
         style="stroke:#000000;stroke-width:2">
        <g
           id="g3758"
           transform="translate(488,645)">
          <path
             id="path3728"
             d="M 5,56.0002 H 39"
             inkscape:connector-curvature="0" />
          <path
             id="path3730"
             d="m 22,56.0002 v -39"
             inkscape:connector-curvature="0" />
          <path
             id="path3732"
             d="m 17,39.0002 c 1.067,1.138 3.094,2.563 5,6"
             inkscape:connector-curvature="0" />
          <path
             id="path3734"
             d="m 17,39.0002 c 0,-12.954 -5.435,-16 -17,-16 0,12.505 7.642,16 17,16 z"
             inkscape:connector-curvature="0" />
          <path
             id="path3736"
             d="m 17,39.0002 c -2.396,-3.75 -5,-6.625 -8,-8"
             inkscape:connector-curvature="0" />
          <path
             id="path3738"
             d="m 28,42.0002 c -1.875,2 -4.156,4.53 -6,8"
             inkscape:connector-curvature="0" />
          <path
             id="path3740"
             d="m 28,42.0002 c 0,-10.888 4.9,-13 14,-13 0.171,10.555 -4.575,13 -14,13 z"
             inkscape:connector-curvature="0" />
          <path
             id="path3742"
             d="m 28,42.0002 c 1.594,-2.656 3.344,-4.844 6,-6"
             inkscape:connector-curvature="0" />
          <path
             id="path3744"
             d="m 22,17.0002 c 0.029,-3.777 0.678,-6.159 2.55,-9"
             inkscape:connector-curvature="0" />
          <path
             id="path3746"
             d="m 31,2e-4 c 2.547,7.859 -3.741,12.403 -8.625,13 C 18.741,7.6022 21.25,1.3282 31,2e-4"
             inkscape:connector-curvature="0" />
          <path
             id="path3748"
             d="m 18,22.0002 c -8.375,0 -10,-4 -10,-11 8.119,-0.132 10,3.75 10,11 z"
             inkscape:connector-curvature="0" />
          <path
             id="path3750"
             d="m 14,17.6669 4,4.333 c 0,0 4,4 4,7"
             inkscape:connector-curvature="0" />
          <path
             id="path3752"
             d="m 22,33.0002 c 0,-1.944 2.035,-4.868 4,-7 0.752,-0.816 3.531,-4.063 6,-6"
             inkscape:connector-curvature="0" />
          <path
             id="path3754"
             d="m 39,13.0002 c 0,11.962 -3.882,13 -13,13"
             inkscape:connector-curvature="0" />
          <path
             id="path3756"
             d="m 26,26.0002 c 0,-11.962 3.882,-13 13,-13"
             inkscape:connector-curvature="0" />
        </g>
      </g>
    </g>
    <g
       id="light.living_room_sofa"
       data-name="Ebene 2"
       transform="matrix(0.97272318,0,0,1.0117425,770.05189,144.1051)"
       inkscape:label="#g3796">
      <g
         id="g3794">
        <path
           id="path3792"
           d="M 33,50.77 H 55.35 A 3.63,3.63 0 0 0 58.9,46.4 L 49.84,2.89 A 3.64,3.64 0 0 0 46.29,0 H 12.7 A 3.64,3.64 0 0 0 9.14,2.89 L 0.08,46.4 a 3.63,3.63 0 0 0 3.55,4.37 H 26 v 68.9 H 13.07 a 3.5,3.5 0 0 0 -3.5,3.5 v 3.43 h 39.84 v -3.43 a 3.5,3.5 0 0 0 -3.5,-3.5 H 33 Z"
           inkscape:connector-curvature="0" />
      </g>
    </g>
    <g
       inkscape:label="#g3796"
       transform="matrix(0.97272318,0,0,1.0117425,625.52275,174.13712)"
       data-name="Ebene 2"
       id="light.bedroom_corner">
      <g
         id="g3811">
        <path
           inkscape:connector-curvature="0"
           d="M 33,50.77 H 55.35 A 3.63,3.63 0 0 0 58.9,46.4 L 49.84,2.89 A 3.64,3.64 0 0 0 46.29,0 H 12.7 A 3.64,3.64 0 0 0 9.14,2.89 L 0.08,46.4 a 3.63,3.63 0 0 0 3.55,4.37 H 26 v 68.9 H 13.07 a 3.5,3.5 0 0 0 -3.5,3.5 v 3.43 h 39.84 v -3.43 a 3.5,3.5 0 0 0 -3.5,-3.5 H 33 Z"
           id="path3809" />
      </g>
    </g>
    <g
       id="light.tradfri_bulb_e27_ws_opal_980lm_4"
       transform="matrix(0.35718956,-0.00316246,0.00272937,0.41386621,1194.5584,-757.10221)"
       inkscape:label="#g3827">
      <path
         id="path3815"
         d="m 430.866,168.246 c 0,-2.213 -0.587,-4.386 -1.702,-6.297 L 399,110.227 V 79.582 c 0,-25.578 -20.635,-46.387 -46,-46.387 -24.505,0 -44.591,19.424 -45.925,43.805 h -42.019 c -4.369,-3.536 -9.93,-5.658 -15.988,-5.658 -14.047,0 -25.435,11.389 -25.435,25.436 0,0.435 0.011,0.867 0.033,1.297 l -110.34,146.926 c -11.28,2.604 -19.692,12.706 -19.692,24.776 0,13.273 10.169,24.167 23.141,25.328 l 102.256,92.123 c 0.734,4.158 2.477,7.967 4.97,11.166 V 415 h -2.552 C 205.762,415 193,427.674 193,443.252 v 7.104 C 193,466.15 205.762,479 221.448,479 H 375.552 C 391.238,479 404,466.15 404,450.355 v -7.104 C 404,427.674 391.238,415 375.552,415 H 264 v -16.431 c 3.442,-4.339 5.504,-9.823 5.504,-15.792 0,-13.506 -10.528,-24.548 -23.825,-25.379 L 146.227,267.8 256.363,121.146 c 2.974,-0.89 5.719,-2.307 8.126,-4.146 h 39.325 l -25.26,45.515 c -1.03,1.855 -1.57,3.943 -1.57,6.065 0,15.405 12.689,28.42 27.708,28.42 h 99.116 c 14.92,0 27.058,-12.899 27.058,-28.754 z"
         inkscape:connector-curvature="0" />
      <path
         id="path3817"
         d="m 389.126,210 c 0,0 0.001,-0.042 0.002,-0.091 -10e-4,0.03 -0.003,0.061 -0.002,0.091 z"
         inkscape:connector-curvature="0" />
      <path
         id="path3819"
         d="m 389.128,209.909 c 0,-0.056 0.004,-0.11 0.004,-0.166 0,-0.053 -0.003,0.072 -0.004,0.166 z"
         inkscape:connector-curvature="0" />
      <path
         id="path3821"
         d="m 319,209.617 c 0,-0.041 0,-0.062 0,-0.041 0,0.014 0,0.028 0,0.041 z"
         inkscape:connector-curvature="0" />
      <path
         id="path3823"
         d="m 319.077,210 h 0.005 c -10e-4,-0.128 -0.01,-0.255 -0.01,-0.383 0.002,0.112 0.005,0.383 0.005,0.383 z"
         inkscape:connector-curvature="0" />
      <path
         id="path3825"
         d="m 354.102,244.273 c 19.261,0 34.885,-15.049 35.023,-34.273 h -70.043 c 0.228,19.146 15.815,34.273 35.02,34.273 z"
         inkscape:connector-curvature="0" />
    </g>
    <path
       id="light.kitchen_grower"
       d="m 684.76614,-1075.7402 h -3.979 c -6.06323,0 -11.84224,2.8867 -16.10543,8.0829 -1.2316,1.5011 -1.98952,3.5796 -1.98952,5.7736 0,2.1939 0.66319,4.157 1.98952,5.6581 l 1.61053,1.9629 -0.28422,0.3465 c -1.80002,2.1939 -3.41055,4.7343 -4.64214,7.3902 v -8.4295 c 0,-6.8127 -1.98948,-13.3946 -5.58953,-18.4754 l 2.17895,-2.6558 c 1.51582,-1.8476 2.36847,-4.3879 2.36847,-7.0438 0,-2.6558 -0.85265,-5.1962 -2.36847,-7.0436 -5.68425,-6.8129 -13.16855,-10.6234 -21.12654,-10.6234 h -4.26319 c -1.04212,0 -1.89477,1.0393 -1.89477,2.3094 v 5.1962 c 0,9.6995 3.12636,18.8218 8.71589,25.6346 1.61053,1.963 3.69477,2.8868 5.77902,2.8868 2.08421,0 4.16846,-0.9238 5.779,-2.8868 l 1.98948,-2.4249 c 2.93689,4.2724 4.45269,9.5842 4.45269,15.2422 v 16.0505 c -0.94738,-2.0784 -2.08422,-3.926 -3.41054,-5.7735 l 1.23156,-1.5011 c 0.94737,-1.1548 1.51583,-2.6559 1.51583,-4.388 0,-1.7321 -0.56846,-3.2331 -1.51583,-4.3879 -3.0316,-3.6951 -7.01058,-5.658 -11.17906,-5.658 h -3.50531 c -1.04211,0 -1.89475,1.0392 -1.89475,2.3094 v 4.5034 c 0,5.1961 1.61056,10.0459 4.64218,13.6255 0.94737,1.1547 2.17894,1.8476 3.60003,1.8476 1.32633,0 2.65266,-0.6929 3.60004,-1.8476 l 1.13685,-1.3856 c 3.88425,5.5426 6.06323,12.4709 6.06323,19.861 v 9.6996 c 0,1.2702 0.85264,2.3095 1.89474,2.3095 1.04211,0 1.89476,-1.0393 1.89476,-2.3095 v -9.4687 -7.7365 c 0,-8.1985 2.65266,-15.8195 7.29482,-21.5932 l 0.2842,-0.3463 1.61056,1.9629 c 1.2316,1.5012 2.93685,2.3096 4.73689,2.3096 1.80003,0 3.41055,-0.8084 4.64216,-2.425 4.26318,-5.1962 6.72638,-12.2399 6.72638,-19.6301 v -4.8498 c -0.0946,-1.0392 -0.94737,-2.0784 -1.98948,-2.0784 z m -36.37935,4.8497 c -1.70529,2.0785 -4.54741,2.0785 -6.2527,0 -4.92638,-6.0044 -7.57904,-13.972 -7.57904,-22.4014 v -2.8868 h 2.36845 c 6.91588,0 13.45277,3.3487 18.37916,9.2377 1.70526,2.0785 1.70526,5.5426 0,7.621 z m -2.4632,27.7131 c -2.27371,-2.7713 -3.50527,-6.4664 -3.50527,-10.3924 v -2.1939 h 1.80001 c 3.22109,0 6.2527,1.501 8.52641,4.2724 0.47368,0.5773 0.47368,1.6166 0,2.1939 l -5.02111,6.12 c -0.47371,0.5773 -1.32634,0.5773 -1.80004,0 z m 36.94776,-25.4037 c 0,6.2354 -1.98947,12.009 -5.58951,16.3969 -1.04213,1.2702 -2.93688,1.2702 -3.97899,0 l -5.96851,-7.2746 c -0.56842,-0.6929 -0.85261,-1.5011 -0.85261,-2.4249 0,-0.9239 0.28419,-1.8477 0.85261,-2.425 3.60007,-4.3879 8.33695,-6.8127 13.4528,-6.8127 h 2.08421 z"
       inkscape:connector-curvature="0"
       style="stroke-width:1.04592073"
       inkscape:label="#path3844" />
    <rect
       style="stroke-width:2.50829387"
       inkscape:label="#rect3714"
       y="-671.22687"
       x="385.79712"
       height="76.957077"
       width="80.711075"
       id="light.hallway_panel" />
    <g
       id="light.pc_room_monitors_2"
       data-name="Ebene 2"
       transform="matrix(1.3546646,0,0,1.3546646,771.92746,-1325.8302)"
       inkscape:label="#g3865">
      <g
         id="g3863">
        <path
           id="path3861"
           d="M 33,50.77 H 55.35 A 3.63,3.63 0 0 0 58.9,46.4 L 49.84,2.89 A 3.64,3.64 0 0 0 46.29,0 H 12.7 A 3.64,3.64 0 0 0 9.14,2.89 L 0.08,46.4 a 3.63,3.63 0 0 0 3.55,4.37 H 26 v 68.9 H 13.07 a 3.5,3.5 0 0 0 -3.5,3.5 v 3.43 h 39.84 v -3.43 a 3.5,3.5 0 0 0 -3.5,-3.5 H 33 Z"
           inkscape:connector-curvature="0" />
      </g>
    </g>
    <g
       id="light.desk_leds"
       transform="matrix(6.1237183,0,0,6.1237183,763.6756,-1119.0715)">
      <path
         id="path3878"
         d="M 31,12 H 15 c 0,-0.553 -0.448,-1 -1,-1 H 12 V 9 h 4 c 0.552,0 1,-0.447 1,-1 V 1 C 17,0.447 16.552,0 16,0 H 5 C 4.448,0 4,0.447 4,1 v 7 c 0,0.553 0.448,1 1,1 h 4 v 2 H 7 C 6.448,11 6,11.447 6,12 H 1 c -0.553,0 -1,0.447 -1,1 0,0.553 0.447,1 1,1 H 3 V 30 H 5 V 14 H 17 V 28.959 C 17,29.534 17.467,30 18.041,30 H 28.959 C 29.533,30 30,29.534 30,28.959 V 14 h 1 c 0.553,0 1,-0.447 1,-1 0,-0.553 -0.447,-1 -1,-1 z M 6,2 h 9 V 7 H 6 Z m 22,25.5 c 0,0.276 -0.225,0.5 -0.5,0.5 h -8 C 19.225,28 19,27.776 19,27.5 v -4 C 19,23.224 19.225,23 19.5,23 h 8 c 0.275,0 0.5,0.224 0.5,0.5 z m 0,-7 c 0,0.276 -0.225,0.5 -0.5,0.5 h -8 C 19.225,21 19,20.776 19,20.5 v -4 C 19,16.224 19.225,16 19.5,16 h 8 c 0.275,0 0.5,0.224 0.5,0.5 z"
         inkscape:connector-curvature="0" />
      <path
         id="path3880"
         d="m 20,27 h 7 v -3 h -7 z m 3.5,-2 C 23.775,25 24,25.224 24,25.5 24,25.776 23.775,26 23.5,26 23.225,26 23,25.776 23,25.5 23,25.224 23.225,25 23.5,25 Z"
         inkscape:connector-curvature="0" />
      <path
         id="path3882"
         d="m 20,20 h 7 v -3 h -7 z m 3.5,-2 C 23.775,18 24,18.224 24,18.5 24,18.776 23.775,19 23.5,19 23.225,19 23,18.776 23,18.5 23,18.224 23.225,18 23.5,18 Z"
         inkscape:connector-curvature="0" />
    </g>
    <text
       xml:space="preserve"
       style="font-style:normal;font-weight:normal;font-size:105.11209869px;line-height:1.25;font-family:sans-serif;letter-spacing:0px;word-spacing:0px;fill:#000000;fill-opacity:1;stroke:none;stroke-width:2.62780261"
       x="813.75348"
       y="-233.88557"
       id="sensor.living_room_temperature"
       inkscape:label="#text3900"><tspan
         sodipodi:role="line"
         id="tspan3898"
         x="813.75348"
         y="-233.88557"
         style="font-size:42.04484177px;stroke-width:2.62780261">temp</tspan></text>
    <text
       xml:space="preserve"
       style="font-style:normal;font-weight:normal;font-size:42.04484177px;line-height:1.25;font-family:sans-serif;letter-spacing:0px;word-spacing:0px;fill:#000000;fill-opacity:1;stroke:none;stroke-width:2.62780261"
       x="815.63049"
       y="-171.94444"
       id="sensor.living_room_humidity"
       inkscape:label="#text3904"><tspan
         sodipodi:role="line"
         id="tspan3902"
         x="815.63049"
         y="-171.94444"
         style="stroke-width:2.62780261">humid</tspan></text>
    <text
       inkscape:label="#text3900"
       id="sensor.bedroom_temperature"
       y="-218.86955"
       x="402.69009"
       style="font-style:normal;font-weight:normal;font-size:105.11209869px;line-height:1.25;font-family:sans-serif;letter-spacing:0px;word-spacing:0px;fill:#000000;fill-opacity:1;stroke:none;stroke-width:2.62780261"
       xml:space="preserve"><tspan
         style="font-size:42.04484177px;stroke-width:2.62780261"
         y="-218.86955"
         x="402.69009"
         id="tspan3906"
         sodipodi:role="line">temp</tspan></text>
    <text
       inkscape:label="#text3904"
       id="sensor.bedroom_humidity"
       y="-156.92842"
       x="404.56711"
       style="font-style:normal;font-weight:normal;font-size:42.04484177px;line-height:1.25;font-family:sans-serif;letter-spacing:0px;word-spacing:0px;fill:#000000;fill-opacity:1;stroke:none;stroke-width:2.62780261"
       xml:space="preserve"><tspan
         y="-156.92842"
         x="404.56711"
         id="tspan3910"
         sodipodi:role="line"
         style="stroke-width:2.62780261">humid</tspan></text>
    <g
       id="light.bed_leds"
       transform="matrix(2.6278025,0,0,2.6278025,295.70097,-29.292334)"
       inkscape:label="#g3922">
      <path
         id="path3914"
         d="m 24.364,43.872 c 4.527,0 8.192,-3.668 8.192,-8.188 0,-4.524 -3.665,-8.189 -8.192,-8.189 -4.521,0 -8.186,3.665 -8.186,8.189 10e-4,4.52 3.666,8.188 8.186,8.188 z"
         inkscape:connector-curvature="0" />
      <path
         id="path3916"
         d="m 20.075,52.985 h 17.218 c 1.98,0 3.633,-1.406 4.018,-3.277 0.057,-0.275 0.091,-0.563 0.091,-0.856 V 37.308 c 0,-2.265 -1.837,-4.102 -4.103,-4.102 -2.265,0 -4.102,1.837 -4.102,4.102 v 7.477 H 20.075 c -2.266,0 -4.1,1.837 -4.1,4.103 0.001,2.263 1.835,4.097 4.1,4.097 z"
         inkscape:connector-curvature="0" />
      <path
         id="path3918"
         d="M 84.276,52.329 C 84.276,41.981 75.891,33.14 65.544,33.14 h -22.48 v 19.846 h 41.194 c 0.013,-0.219 0.018,-0.435 0.018,-0.657 z"
         inkscape:connector-curvature="0" />
      <path
         id="path3920"
         d="m 90.25,32.834 c -2.6,0 -4.705,2.108 -4.705,4.708 V 55.416 H 14.454 V 25.798 c 0,-2.603 -2.105,-4.708 -4.708,-4.708 -2.6,0 -4.708,2.105 -4.708,4.708 V 78.91 h 9.416 V 65.947 H 85.545 V 78.91 h 9.417 V 37.542 c 0,-2.6 -2.112,-4.708 -4.712,-4.708 z"
         inkscape:connector-curvature="0" />
    </g>
    <g
       id="group.non_automatic_lights"
       transform="matrix(2.219512,0,0,2.219512,633.72011,-3765.8787)"
       inkscape:label="#g3939">
      <path
         id="path3937"
         overflow="visible"
         display="inline"
         visibility="visible"
         marker="none"
         d="m 50,961.36219 c -13.2296,0 -26,10.28529 -26,24.84375 0,9.18102 3.5737,15.01576 6.875,19.68756 3.3013,4.6716 6.125,8.1035 6.125,13.4687 v 12 c 0,3.3944 2.8143,6 6,6 h 1 c 0,3.2894 2.7106,6 6,6 3.2894,0 6,-2.7106 6,-6 h 1 c 3.1857,0 6,-2.6056 6,-6 v -12 c 0,-5.3652 2.8237,-8.7971 6.125,-13.4687 C 72.4263,1001.2217 76,995.38696 76,986.20594 76,971.64748 63.2296,961.36219 50,961.36219 Z m 0,4 c 11.1608,0 22,8.63761 22,20.84375 0,8.18278 -2.9263,12.84857 -6.125,17.37506 -2.8723,4.0645 -6.1151,8.0874 -6.75,13.7812 h -18.25 c -0.6349,-5.6938 -3.8777,-9.7167 -6.75,-13.7812 C 30.9263,999.05451 28,994.38872 28,986.20594 28,973.9998 38.8392,965.36219 50,965.36219 Z m -2.2188,3.125 C 38.3394,969.58849 31,977.64485 31,987.36219 c 0,1.94221 0.3015,3.79716 0.8438,5.5625 0.2239,1.08504 1.471,1.82155 2.5312,1.5 1.0602,-0.32156 1.6978,-1.62959 1.2812,-2.65625 C 35.2279,990.37358 35,988.89838 35,987.36219 c 0,-7.71346 5.7588,-14.03615 13.2188,-14.90625 1.0471,-0.0818 1.9255,-1.10905 1.8437,-2.15625 -0.033,-1.37794 -1.2025,-1.88949 -2.2813,-1.8125 z M 41,1021.3622 h 18 v 4 H 41 Z m 0,8 h 18 v 2 c 0,1.2018 -0.9647,2 -2,2 H 43 c -1.0353,0 -2,-0.7982 -2,-2 z m 7,8 h 4 c 0,1.1426 -0.8574,2 -2,2 -1.1426,0 -2,-0.8574 -2,-2 z"
         style="color:#000000;text-indent:0;text-transform:none;direction:ltr;baseline-shift:baseline;display:inline;overflow:visible;visibility:visible;fill:#000000;fill-opacity:1;enable-background:accumulate"
         inkscape:connector-curvature="0" />
    </g>
    <g
       id="light.living_room_dinner_table"
       transform="matrix(2.9650454,0,0,2.5560693,1247.7143,-417.7)"
       inkscape:label="#g87">
      <path
         id="path79"
         d="M 35,0 H 31 5 1 C 0.45,0 0,0.45 0,1 0,1.55 0.45,2 1,2 H 4 V 5 C 4,5.55 4.45,6 5,6 H 7 V 21 H 6 c -0.55,0 -1,0.45 -1,1 v 4 1.81 C 3.16,28.87 2,30.84 2,33 c 0,3.31 2.69,6 6,6 3.31,0 6,-2.69 6,-6 0,-2.16 -1.16,-4.13 -3,-5.19 V 26 22 c 0,-0.55 -0.45,-1 -1,-1 H 9 V 6 h 8 v 35 h -1 c -0.55,0 -1,0.45 -1,1 v 4 1.81 c -1.84,1.06 -3,3.04 -3,5.19 0,3.31 2.69,6 6,6 3.31,0 6,-2.69 6,-6 0,-2.16 -1.16,-4.13 -3,-5.19 V 46 42 c 0,-0.55 -0.45,-1 -1,-1 H 19 V 6 h 8 v 25 h -1 c -0.55,0 -1,0.45 -1,1 v 4 1.81 c -1.84,1.06 -3,3.04 -3,5.19 0,3.31 2.69,6 6,6 3.31,0 6,-2.69 6,-6 0,-2.16 -1.16,-4.13 -3,-5.19 V 36 32 c 0,-0.55 -0.45,-1 -1,-1 H 29 V 6 h 2 c 0.55,0 1,-0.45 1,-1 V 2 h 3 C 35.55,2 36,1.55 36,1 36,0.45 35.55,0 35,0 Z M 7,23 h 2 v 2 H 7 Z m 5,10 c 0,2.21 -1.79,4 -4,4 C 5.79,37 4,35.21 4,33 4,31.41 4.94,29.98 6.4,29.34 6.76,29.18 7,28.82 7,28.42 V 27 h 2 v 1.42 c 0,0.4 0.24,0.76 0.6,0.92 1.46,0.64 2.4,2.07 2.4,3.66 z m 5,10 h 2 v 2 h -2 z m 5,10 c 0,2.21 -1.79,4 -4,4 -2.21,0 -4,-1.79 -4,-4 0,-1.59 0.94,-3.02 2.4,-3.66 0.36,-0.16 0.6,-0.52 0.6,-0.92 V 47 h 2 v 1.42 c 0,0.4 0.24,0.76 0.6,0.92 1.46,0.64 2.4,2.07 2.4,3.66 z m 5,-20 h 2 v 2 h -2 z m 5,10 c 0,2.21 -1.79,4 -4,4 -2.21,0 -4,-1.79 -4,-4 0,-1.59 0.94,-3.02 2.4,-3.66 0.36,-0.16 0.6,-0.52 0.6,-0.92 V 37 h 2 v 1.42 c 0,0.4 0.24,0.76 0.6,0.92 1.46,0.64 2.4,2.07 2.4,3.66 z M 30,4 H 6 V 2 h 24 z"
         inkscape:connector-curvature="0" />
      <path
         id="path81"
         d="M 9,32 V 30 C 9,29.45 8.55,29 8,29 7.45,29 7,29.45 7,30 v 2 c -0.55,0 -1,0.45 -1,1 0,0.55 0.45,1 1,1 h 2 c 0.55,0 1,-0.45 1,-1 0,-0.55 -0.45,-1 -1,-1 z"
         inkscape:connector-curvature="0" />
      <path
         id="path83"
         d="m 29,42 v -2 c 0,-0.55 -0.45,-1 -1,-1 -0.55,0 -1,0.45 -1,1 v 2 c -0.55,0 -1,0.45 -1,1 0,0.55 0.45,1 1,1 h 2 c 0.55,0 1,-0.45 1,-1 0,-0.55 -0.45,-1 -1,-1 z"
         inkscape:connector-curvature="0" />
      <path
         id="path85"
         d="m 19,52 v -2 c 0,-0.55 -0.45,-1 -1,-1 -0.55,0 -1,0.45 -1,1 v 2 c -0.55,0 -1,0.45 -1,1 0,0.55 0.45,1 1,1 h 2 c 0.55,0 1,-0.45 1,-1 0,-0.55 -0.45,-1 -1,-1 z"
         inkscape:connector-curvature="0" />
    </g>
  </g>
</svg>
